<?xml version="1.0" encoding="UTF-8"?>
<svg viewBox="0 0 500 420" class="w-full max-w-md mx-auto" xmlns="http://www.w3.org/2000/svg"><defs><radialGradient id="ct-sphere" cx="0.4" cy="0.35"><stop offset="0%" stop-color="hsl(220,18%,16%)"></stop><stop offset="100%" stop-color="hsl(220,20%,8%)"></stop></radialGradient><clipPath id="ct-cap-clip"><rect x="0" y="0" width="500" height="155"></rect></clipPath></defs><text x="250" y="24" text-anchor="middle" fill="hsl(175,70%,50%)" font-family="monospace" font-size="13" font-weight="600">COLLAR TRIPARTITION A · B · D</text><circle cx="250" cy="210" r="130" fill="url(#ct-sphere)" stroke="hsl(220,15%,22%)" stroke-width="1"></circle><circle cx="250" cy="210" r="130" fill="hsl(150,60%,45%)" fill-opacity="0.06"></circle><path d="M145,170 A130,130 0 0,1 355,170" fill="hsl(175,70%,50%)" fill-opacity="0.15" stroke="none"></path><path d="M145,170 A100,22 0 0,0 355,170" fill="hsl(175,70%,50%)" fill-opacity="0.15" stroke="none"></path><path d="M145,170 A130,130 0 0,1 355,170" fill="none" stroke="hsl(175,70%,50%)" stroke-width="1.2"></path><ellipse cx="250" cy="170" rx="105" ry="22" fill="hsl(45,90%,55%)" fill-opacity="0.15" stroke="hsl(45,90%,55%)" stroke-width="1.5"></ellipse><text x="250" y="120" text-anchor="middle" fill="hsl(175,80%,65%)" font-family="monospace" font-size="20" font-weight="700">A</text><text x="250" y="137" text-anchor="middle" fill="hsl(175,60%,45%)" font-family="monospace" font-size="10">(cap interior)</text><line x1="356" y1="170" x2="400" y2="145" stroke="hsl(45,70%,50%)" stroke-width="1" stroke-dasharray="3,3"></line><text x="405" y="142" fill="hsl(45,90%,60%)" font-family="monospace" font-size="14" font-weight="700">B</text><text x="405" y="156" fill="hsl(45,70%,50%)" font-family="monospace" font-size="9">(collar)</text><text x="250" y="275" text-anchor="middle" fill="hsl(150,60%,55%)" font-family="monospace" font-size="20" font-weight="700">D</text><text x="250" y="292" text-anchor="middle" fill="hsl(150,50%,40%)" font-family="monospace" font-size="10">(exterior)</text><ellipse cx="250" cy="170" rx="105" ry="22" fill="none" stroke="hsl(45,90%,55%)" stroke-width="0.8" stroke-dasharray="4,3"></ellipse><rect x="80" y="390" width="10" height="10" rx="2" fill="hsl(175,70%,50%)" fill-opacity="0.3"></rect><text x="96" y="400" fill="hsl(210,20%,65%)" font-family="monospace" font-size="10">A: Cap (inside boundary)</text><rect x="260" y="390" width="10" height="10" rx="2" fill="hsl(45,90%,55%)" fill-opacity="0.3"></rect><text x="276" y="400" fill="hsl(210,20%,65%)" font-family="monospace" font-size="10">B: Collar (thin ring)</text><rect x="80" y="408" width="10" height="10" rx="2" fill="hsl(150,60%,45%)" fill-opacity="0.3"></rect><text x="96" y="418" fill="hsl(210,20%,65%)" font-family="monospace" font-size="10">D: Exterior (outside boundary)</text></svg>